<svg version="1.1" xmlns="http://www.w3.org/2000/svg" xmlns:xlink="http://www.w3.org/1999/xlink" width="740.60986328125" height="600"><defs/><g><g transform="translate(-254,-182) scale(1,1)"><rect fill="#C0C0C0" stroke="none" x="535" y="735" width="76.564453125" height="44" opacity="0.2"/></g><g transform="translate(-254,-182) scale(1,1)"><rect fill="#ffffff" stroke="none" x="528" y="728" width="76.564453125" height="44"/></g><g transform="translate(-254,-182) scale(1,1)"><path fill="none" stroke="#000000" d="M 528 728 L 604.564453125 728 L 604.564453125 772 L 528 772 L 528 728 Z Z" stroke-miterlimit="10"/></g><g transform="translate(-254,-182) scale(1,1)"><path fill="none" stroke="#000000" d="M 528 753 L 604.564453125 753" stroke-miterlimit="10"/></g><g transform="translate(-254,-182) scale(1,1)"><path fill="none" stroke="#000000" d="M 528 763 L 604.564453125 763" stroke-miterlimit="10"/></g><g transform="translate(-254,-182) scale(1,1)"><g><path fill="none" stroke="none"/><text fill="#000000" stroke="none" font-family="Arial" font-size="13px" font-style="normal" font-weight="bold" text-decoration="none" x="538.7822265625" y="747.5">Controller</text></g></g><g transform="translate(-254,-182) scale(1,1)"><rect fill="#C0C0C0" stroke="none" x="543" y="583" width="65.6845703125" height="44" opacity="0.2"/></g><g transform="translate(-254,-182) scale(1,1)"><rect fill="#ffffff" stroke="none" x="536" y="576" width="65.6845703125" height="44"/></g><g transform="translate(-254,-182) scale(1,1)"><path fill="none" stroke="#000000" d="M 536 576 L 601.6845703125 576 L 601.6845703125 620 L 536 620 L 536 576 Z Z" stroke-miterlimit="10"/></g><g transform="translate(-254,-182) scale(1,1)"><path fill="none" stroke="#000000" d="M 536 601 L 601.6845703125 601" stroke-miterlimit="10"/></g><g transform="translate(-254,-182) scale(1,1)"><path fill="none" stroke="#000000" d="M 536 611 L 601.6845703125 611" stroke-miterlimit="10"/></g><g transform="translate(-254,-182) scale(1,1)"><g><path fill="none" stroke="none"/><text fill="#000000" stroke="none" font-family="Arial" font-size="13px" font-style="normal" font-weight="bold" text-decoration="none" x="544.34228515625" y="595.5">Mailman</text></g></g><g transform="translate(-254,-182) scale(1,1)"><path fill="none" stroke="#000000" d="M 566 727 L 568 621" stroke-miterlimit="10"/></g><g transform="translate(-254,-182) scale(1,1)"><path fill="#FFFFFF" stroke="none" d="M 561.9829457953653 716.759722878895 L 566 727 L 570.4004831250717 716.9185443379461 L 566.4150204728475 705.0039149390825"/></g><g transform="translate(-254,-182) scale(1,1)"><path fill="none" stroke="#000000" d="M 561.9829457953653 716.759722878895 L 566 727 L 570.4004831250717 716.9185443379461 L 566.4150204728475 705.0039149390825 L 561.9829457953653 716.759722878895" stroke-miterlimit="10"/></g><g transform="translate(-254,-182) scale(1,1)"><rect fill="#C0C0C0" stroke="none" x="751" y="647" width="61" height="44" opacity="0.2"/></g><g transform="translate(-254,-182) scale(1,1)"><rect fill="#ffffff" stroke="none" x="744" y="640" width="61" height="44"/></g><g transform="translate(-254,-182) scale(1,1)"><path fill="none" stroke="#000000" d="M 744 640 L 805 640 L 805 684 L 744 684 L 744 640 Z Z" stroke-miterlimit="10"/></g><g transform="translate(-254,-182) scale(1,1)"><path fill="none" stroke="#000000" d="M 744 665 L 805 665" stroke-miterlimit="10"/></g><g transform="translate(-254,-182) scale(1,1)"><path fill="none" stroke="#000000" d="M 744 675 L 805 675" stroke-miterlimit="10"/></g><g transform="translate(-254,-182) scale(1,1)"><g><path fill="none" stroke="none"/><text fill="#000000" stroke="none" font-family="Arial" font-size="13px" font-style="normal" font-weight="bold" text-decoration="none" x="755.5" y="659.5">Parser</text></g></g><g transform="translate(-254,-182) scale(1,1)"><path fill="none" stroke="#000000" d="M 606 733 L 743 675" stroke-miterlimit="10"/></g><g transform="translate(-254,-182) scale(1,1)"><path fill="#FFFFFF" stroke="none" d="M 613.7174281883734 725.1615497604885 L 606 733 L 616.999667123671 732.9144244869672 L 626.2592379778863 724.4230963305299"/></g><g transform="translate(-254,-182) scale(1,1)"><path fill="none" stroke="#000000" d="M 613.7174281883734 725.1615497604885 L 606 733 L 616.999667123671 732.9144244869672 L 626.2592379778863 724.4230963305299 L 613.7174281883734 725.1615497604885" stroke-miterlimit="10"/></g><g transform="translate(-254,-182) scale(1,1)"><rect fill="#C0C0C0" stroke="none" x="383" y="647" width="60" height="44" opacity="0.2"/></g><g transform="translate(-254,-182) scale(1,1)"><rect fill="#ffffff" stroke="none" x="376" y="640" width="60" height="44"/></g><g transform="translate(-254,-182) scale(1,1)"><path fill="none" stroke="#000000" d="M 376 640 L 436 640 L 436 684 L 376 684 L 376 640 Z Z" stroke-miterlimit="10"/></g><g transform="translate(-254,-182) scale(1,1)"><path fill="none" stroke="#000000" d="M 376 665 L 436 665" stroke-miterlimit="10"/></g><g transform="translate(-254,-182) scale(1,1)"><path fill="none" stroke="#000000" d="M 376 675 L 436 675" stroke-miterlimit="10"/></g><g transform="translate(-254,-182) scale(1,1)"><g><path fill="none" stroke="none"/><text fill="#000000" stroke="none" font-family="Arial" font-size="13px" font-style="normal" font-weight="bold" text-decoration="none" x="387.5" y="659.5">Player</text></g></g><g transform="translate(-254,-182) scale(1,1)"><path fill="none" stroke="#000000" d="M 527 729 L 437 679" stroke-miterlimit="10"/></g><g transform="translate(-254,-182) scale(1,1)"><path fill="#000000" stroke="none" d="M 516.0719012864703 727.7443493689123 L 527 729 L 520.1605463702306 720.3847882181439 L 507.7685399253262 718.3158555140701"/></g><g transform="translate(-254,-182) scale(1,1)"><path fill="none" stroke="#000000" d="M 516.0719012864703 727.7443493689123 L 527 729 L 520.1605463702306 720.3847882181439 L 507.7685399253262 718.3158555140701 L 516.0719012864703 727.7443493689123" stroke-miterlimit="10"/></g><g transform="translate(-254,-182) scale(1,1)"><rect fill="#C0C0C0" stroke="none" x="783" y="519" width="61.59033203125" height="44" opacity="0.2"/></g><g transform="translate(-254,-182) scale(1,1)"><rect fill="#ffffff" stroke="none" x="776" y="512" width="61.59033203125" height="44"/></g><g transform="translate(-254,-182) scale(1,1)"><path fill="none" stroke="#000000" d="M 776 512 L 837.59033203125 512 L 837.59033203125 556 L 776 556 L 776 512 Z Z" stroke-miterlimit="10"/></g><g transform="translate(-254,-182) scale(1,1)"><path fill="none" stroke="#000000" d="M 776 537 L 837.59033203125 537" stroke-miterlimit="10"/></g><g transform="translate(-254,-182) scale(1,1)"><path fill="none" stroke="#000000" d="M 776 547 L 837.59033203125 547" stroke-miterlimit="10"/></g><g transform="translate(-254,-182) scale(1,1)"><g><path fill="none" stroke="none"/><text fill="#000000" stroke="none" font-family="Arial" font-size="13px" font-style="normal" font-weight="bold" text-decoration="none" x="782.795166015625" y="531.5">Scanner</text></g></g><g transform="translate(-254,-182) scale(1,1)"><path fill="none" stroke="#000000" d="M 780 639 L 800 557" stroke-miterlimit="10"/></g><g transform="translate(-254,-182) scale(1,1)"><path fill="#FFFFFF" stroke="none" d="M 778.3184764983475 628.1292834314664 L 780 639 L 786.4977407312241 630.12422592729 L 785.2130359642022 617.6265525467711"/></g><g transform="translate(-254,-182) scale(1,1)"><path fill="none" stroke="#000000" d="M 778.3184764983475 628.1292834314664 L 780 639 L 786.4977407312241 630.12422592729 L 785.2130359642022 617.6265525467711 L 778.3184764983475 628.1292834314664" stroke-miterlimit="10"/></g><g transform="translate(-254,-182) scale(1,1)"><rect fill="#C0C0C0" stroke="none" x="551" y="199" width="50" height="44" opacity="0.2"/></g><g transform="translate(-254,-182) scale(1,1)"><rect fill="#ffffff" stroke="none" x="544" y="192" width="50" height="44"/></g><g transform="translate(-254,-182) scale(1,1)"><path fill="none" stroke="#000000" d="M 544 192 L 594 192 L 594 236 L 544 236 L 544 192 Z Z" stroke-miterlimit="10"/></g><g transform="translate(-254,-182) scale(1,1)"><path fill="none" stroke="#000000" d="M 544 217 L 594 217" stroke-miterlimit="10"/></g><g transform="translate(-254,-182) scale(1,1)"><path fill="none" stroke="#000000" d="M 544 227 L 594 227" stroke-miterlimit="10"/></g><g transform="translate(-254,-182) scale(1,1)"><g><path fill="none" stroke="none"/><text fill="#000000" stroke="none" font-family="Arial" font-size="13px" font-style="normal" font-weight="bold" text-decoration="none" x="555.5" y="211.5">Card</text></g></g><g transform="translate(-254,-182) scale(1,1)"><rect fill="#C0C0C0" stroke="none" x="655" y="199" width="76.48828125" height="44" opacity="0.2"/></g><g transform="translate(-254,-182) scale(1,1)"><rect fill="#ffffff" stroke="none" x="648" y="192" width="76.48828125" height="44"/></g><g transform="translate(-254,-182) scale(1,1)"><path fill="none" stroke="#000000" d="M 648 192 L 724.48828125 192 L 724.48828125 236 L 648 236 L 648 192 Z Z" stroke-miterlimit="10"/></g><g transform="translate(-254,-182) scale(1,1)"><path fill="none" stroke="#000000" d="M 648 217 L 724.48828125 217" stroke-miterlimit="10"/></g><g transform="translate(-254,-182) scale(1,1)"><path fill="none" stroke="#000000" d="M 648 227 L 724.48828125 227" stroke-miterlimit="10"/></g><g transform="translate(-254,-182) scale(1,1)"><g><path fill="none" stroke="none"/><text fill="#000000" stroke="none" font-family="Arial" font-size="13px" font-style="normal" font-weight="bold" text-decoration="none" x="656.744140625" y="211.5">PlayerInfo</text></g></g><g transform="translate(-254,-182) scale(1,1)"><rect fill="#C0C0C0" stroke="none" x="775" y="199" width="71" height="44" opacity="0.2"/></g><g transform="translate(-254,-182) scale(1,1)"><rect fill="#ffffff" stroke="none" x="768" y="192" width="71" height="44"/></g><g transform="translate(-254,-182) scale(1,1)"><path fill="none" stroke="#000000" d="M 768 192 L 839 192 L 839 236 L 768 236 L 768 192 Z Z" stroke-miterlimit="10"/></g><g transform="translate(-254,-182) scale(1,1)"><path fill="none" stroke="#000000" d="M 768 217 L 839 217" stroke-miterlimit="10"/></g><g transform="translate(-254,-182) scale(1,1)"><path fill="none" stroke="#000000" d="M 768 227 L 839 227" stroke-miterlimit="10"/></g><g transform="translate(-254,-182) scale(1,1)"><g><path fill="none" stroke="none"/><text fill="#000000" stroke="none" font-family="Arial" font-size="13px" font-style="normal" font-weight="bold" text-decoration="none" x="785" y="211.5">Action</text></g></g><g transform="translate(-254,-182) scale(1,1)"><rect fill="#C0C0C0" stroke="none" x="871" y="319" width="70" height="44" opacity="0.2"/></g><g transform="translate(-254,-182) scale(1,1)"><rect fill="#ffffff" stroke="none" x="864" y="312" width="70" height="44"/></g><g transform="translate(-254,-182) scale(1,1)"><path fill="none" stroke="#000000" d="M 864 312 L 934 312 L 934 356 L 864 356 L 864 312 Z Z" stroke-miterlimit="10"/></g><g transform="translate(-254,-182) scale(1,1)"><path fill="none" stroke="#000000" d="M 864 337 L 934 337" stroke-miterlimit="10"/></g><g transform="translate(-254,-182) scale(1,1)"><path fill="none" stroke="#000000" d="M 864 347 L 934 347" stroke-miterlimit="10"/></g><g transform="translate(-254,-182) scale(1,1)"><g><path fill="none" stroke="none"/><text fill="#000000" stroke="none" font-family="Arial" font-size="13px" font-style="normal" font-weight="bold" text-decoration="none" x="875.5" y="331.5">RdState</text></g></g><g transform="translate(-254,-182) scale(1,1)"><path fill="none" stroke="#000000" d="M 821 237 L 881 311" stroke-miterlimit="10"/></g><g transform="translate(-254,-182) scale(1,1)"><path fill="#000000" stroke="none" d="M 871.3297603555479 305.757246408721 L 881 311 L 877.8692945881925 300.4549213552255 L 867.1443569147332 293.91137352817094"/></g><g transform="translate(-254,-182) scale(1,1)"><path fill="none" stroke="#000000" d="M 871.3297603555479 305.757246408721 L 881 311 L 877.8692945881925 300.4549213552255 L 867.1443569147332 293.91137352817094 L 871.3297603555479 305.757246408721" stroke-miterlimit="10"/></g><g transform="translate(-254,-182) scale(1,1)"><path fill="none" stroke="#000000" d="M 725 236 L 863 314" stroke-miterlimit="10"/></g><g transform="translate(-254,-182) scale(1,1)"><path fill="#000000" stroke="none" d="M 852.081429168037 312.6640318164697 L 863 314 L 856.224076685877 305.33473236182954 L 843.847617548157 303.17474035330616"/></g><g transform="translate(-254,-182) scale(1,1)"><path fill="none" stroke="#000000" d="M 852.081429168037 312.6640318164697 L 863 314 L 856.224076685877 305.33473236182954 L 843.847617548157 303.17474035330616 L 852.081429168037 312.6640318164697" stroke-miterlimit="10"/></g><g transform="translate(-254,-182) scale(1,1)"><path fill="none" stroke="#000000" d="M 763 639 L 580 237" stroke-miterlimit="10" stroke-dasharray="3"/></g><g transform="translate(-254,-182) scale(1,1)"><path fill="none" stroke="#000000" d="M 588.0417687460466 244.50532846950142 L 580 237 L 580.3793205572467 247.99345786888048" stroke-miterlimit="10"/></g><g transform="translate(-254,-182) scale(1,1)"><path fill="none" stroke="#000000" d="M 769 639 L 691 237" stroke-miterlimit="10" stroke-dasharray="3"/></g><g transform="translate(-254,-182) scale(1,1)"><path fill="none" stroke="#000000" d="M 697.0682086636677 246.17479392761425 L 691 237 L 688.8033124935292 247.77843049793964" stroke-miterlimit="10"/></g><g transform="translate(-254,-182) scale(1,1)"><path fill="none" stroke="#000000" d="M 797 511 L 695 237" stroke-miterlimit="10" stroke-dasharray="3"/></g><g transform="translate(-254,-182) scale(1,1)"><path fill="none" stroke="#000000" d="M 702.4905205018204 245.05556345712756 L 695 237 L 694.6004542946406 247.9927413882675" stroke-miterlimit="10"/></g><g transform="translate(-254,-182) scale(1,1)"><path fill="none" stroke="#000000" d="M 806 511 L 803 237" stroke-miterlimit="10" stroke-dasharray="3"/></g><g transform="translate(-254,-182) scale(1,1)"><path fill="none" stroke="#000000" d="M 807.3205289571363 247.11597892102128 L 803 237 L 798.9019980305096 247.20815261729823" stroke-miterlimit="10"/></g><g transform="translate(-254,-182) scale(1,1)"><path fill="none" stroke="#000000" d="M 817 511 L 888 357" stroke-miterlimit="10" stroke-dasharray="3"/></g><g transform="translate(-254,-182) scale(1,1)"><path fill="none" stroke="#000000" d="M 887.5678460899214 367.99150776727214 L 888 357 L 879.9222513619644 364.4665907173699" stroke-miterlimit="10"/></g><g transform="translate(-254,-182) scale(1,1)"><rect fill="#C0C0C0" stroke="none" x="495" y="343" width="107.693359375" height="44" opacity="0.2"/></g><g transform="translate(-254,-182) scale(1,1)"><rect fill="#ffffff" stroke="none" x="488" y="336" width="107.693359375" height="44"/></g><g transform="translate(-254,-182) scale(1,1)"><path fill="none" stroke="#000000" d="M 488 336 L 595.693359375 336 L 595.693359375 380 L 488 380 L 488 336 Z Z" stroke-miterlimit="10"/></g><g transform="translate(-254,-182) scale(1,1)"><path fill="none" stroke="#000000" d="M 488 361 L 595.693359375 361" stroke-miterlimit="10"/></g><g transform="translate(-254,-182) scale(1,1)"><path fill="none" stroke="#000000" d="M 488 371 L 595.693359375 371" stroke-miterlimit="10"/></g><g transform="translate(-254,-182) scale(1,1)"><g><path fill="none" stroke="none"/><text fill="#000000" stroke="none" font-family="Arial" font-size="13px" font-style="normal" font-weight="bold" text-decoration="none" x="499.8466796875" y="355.5">ShowdownInfo</text></g></g><g transform="translate(-254,-182) scale(1,1)"><rect fill="#C0C0C0" stroke="none" x="447" y="199" width="50" height="44" opacity="0.2"/></g><g transform="translate(-254,-182) scale(1,1)"><rect fill="#ffffff" stroke="none" x="440" y="192" width="50" height="44"/></g><g transform="translate(-254,-182) scale(1,1)"><path fill="none" stroke="#000000" d="M 440 192 L 490 192 L 490 236 L 440 236 L 440 192 Z Z" stroke-miterlimit="10"/></g><g transform="translate(-254,-182) scale(1,1)"><path fill="none" stroke="#000000" d="M 440 217 L 490 217" stroke-miterlimit="10"/></g><g transform="translate(-254,-182) scale(1,1)"><path fill="none" stroke="#000000" d="M 440 227 L 490 227" stroke-miterlimit="10"/></g><g transform="translate(-254,-182) scale(1,1)"><g><path fill="none" stroke="none"/><text fill="#000000" stroke="none" font-family="Arial" font-size="13px" font-style="normal" font-weight="bold" text-decoration="none" x="450" y="211.5">Hand</text></g></g><g transform="translate(-254,-182) scale(1,1)"><path fill="none" stroke="#000000" d="M 756 639 L 559 381" stroke-miterlimit="10" stroke-dasharray="3"/></g><g transform="translate(-254,-182) scale(1,1)"><path fill="none" stroke="#000000" d="M 568.5132090104972 386.52257678286094 L 559 381 L 561.8218031093832 391.6319060949519" stroke-miterlimit="10"/></g><g transform="translate(-254,-182) scale(1,1)"><path fill="none" stroke="#000000" d="M 565 237 L 545 335" stroke-miterlimit="10"/></g><g transform="translate(-254,-182) scale(1,1)"><path fill="#000000" stroke="none" d="M 542.9076260035894 324.2008347054439 L 545 335 L 551.1566311692947 325.8843051474246 L 549.399120263912 313.44431070683106"/></g><g transform="translate(-254,-182) scale(1,1)"><path fill="none" stroke="#000000" d="M 542.9076260035894 324.2008347054439 L 545 335 L 551.1566311692947 325.8843051474246 L 549.399120263912 313.44431070683106 L 542.9076260035894 324.2008347054439" stroke-miterlimit="10"/></g><g transform="translate(-254,-182) scale(1,1)"><path fill="none" stroke="#000000" d="M 477 237 L 529 335" stroke-miterlimit="10"/></g><g transform="translate(-254,-182) scale(1,1)"><path fill="#000000" stroke="none" d="M 520.5181202664783 327.9958786285449 L 529 335 L 527.9550670412276 324.04974360520856 L 518.6882522482143 315.56632154471157"/></g><g transform="translate(-254,-182) scale(1,1)"><path fill="none" stroke="#000000" d="M 520.5181202664783 327.9958786285449 L 529 335 L 527.9550670412276 324.04974360520856 L 518.6882522482143 315.56632154471157 L 520.5181202664783 327.9958786285449" stroke-miterlimit="10"/></g><g transform="translate(-254,-182) scale(1,1)"><rect fill="#C0C0C0" stroke="none" x="919" y="407" width="72.60986328125" height="44" opacity="0.2"/></g><g transform="translate(-254,-182) scale(1,1)"><rect fill="#ffffff" stroke="none" x="912" y="400" width="72.60986328125" height="44"/></g><g transform="translate(-254,-182) scale(1,1)"><path fill="none" stroke="#000000" d="M 912 400 L 984.60986328125 400 L 984.60986328125 444 L 912 444 L 912 400 Z Z" stroke-miterlimit="10"/></g><g transform="translate(-254,-182) scale(1,1)"><path fill="none" stroke="#000000" d="M 912 425 L 984.60986328125 425" stroke-miterlimit="10"/></g><g transform="translate(-254,-182) scale(1,1)"><path fill="none" stroke="#000000" d="M 912 435 L 984.60986328125 435" stroke-miterlimit="10"/></g><g transform="translate(-254,-182) scale(1,1)"><g><path fill="none" stroke="none"/><text fill="#000000" stroke="none" font-family="Arial" font-size="13px" font-style="normal" font-weight="bold" text-decoration="none" x="921.304931640625" y="419.5">TableInfo</text></g></g><g transform="translate(-254,-182) scale(1,1)"><path fill="none" stroke="#000000" d="M 935 399 L 912 357" stroke-miterlimit="10" stroke-dasharray="3"/></g><g transform="translate(-254,-182) scale(1,1)"><path fill="none" stroke="#000000" d="M 920.5734336547595 363.891751255482 L 912 357 L 913.1891290283312 367.93553712233563" stroke-miterlimit="10"/></g><g transform="translate(-254,-182) scale(1,1)"><path fill="none" stroke="#000000" d="M 791 639 L 931 445" stroke-miterlimit="10" stroke-dasharray="3"/></g><g transform="translate(-254,-182) scale(1,1)"><path fill="none" stroke="#000000" d="M 928.4664485128178 455.7042569504752 L 931 445 L 921.6394558856839 450.7775612401724" stroke-miterlimit="10"/></g><g transform="translate(-254,-182) scale(1,1)"><path fill="none" stroke="#000000" d="M 324 511 L 454 237" stroke-miterlimit="10" stroke-dasharray="3"/></g><g transform="translate(-254,-182) scale(1,1)"><path fill="none" stroke="#000000" d="M 453.4469058902023 247.986086059453 L 454 237 L 445.8405674529895 244.3772393556659" stroke-miterlimit="10"/></g><g transform="translate(-254,-182) scale(1,1)"><path fill="none" stroke="#000000" d="M 331 511 L 551 237" stroke-miterlimit="10" stroke-dasharray="3"/></g><g transform="translate(-254,-182) scale(1,1)"><path fill="none" stroke="#000000" d="M 547.9197304335456 247.55992137271744 L 551 237 L 541.3549284902323 242.28891251312282" stroke-miterlimit="10"/></g><g transform="translate(-254,-182) scale(1,1)"><rect fill="#C0C0C0" stroke="none" x="271" y="519" width="98.02587890625" height="44" opacity="0.2"/></g><g transform="translate(-254,-182) scale(1,1)"><rect fill="#ffffff" stroke="none" x="264" y="512" width="98.02587890625" height="44"/></g><g transform="translate(-254,-182) scale(1,1)"><path fill="none" stroke="#000000" d="M 264 512 L 362.02587890625 512 L 362.02587890625 556 L 264 556 L 264 512 Z Z" stroke-miterlimit="10"/></g><g transform="translate(-254,-182) scale(1,1)"><path fill="none" stroke="#000000" d="M 264 537 L 362.02587890625 537" stroke-miterlimit="10"/></g><g transform="translate(-254,-182) scale(1,1)"><path fill="none" stroke="#000000" d="M 264 547 L 362.02587890625 547" stroke-miterlimit="10"/></g><g transform="translate(-254,-182) scale(1,1)"><g><path fill="none" stroke="none"/><text fill="#000000" stroke="none" font-family="Arial" font-size="13px" font-style="normal" font-weight="bold" text-decoration="none" x="274.012939453125" y="531.5">HandChecker</text></g></g><g transform="translate(-254,-182) scale(1,1)"><path fill="none" stroke="#000000" d="M 330 557 L 389 639" stroke-miterlimit="10"/></g><g transform="translate(-254,-182) scale(1,1)"><path fill="#FFFFFF" stroke="none" d="M 379.6475931230841 633.2092758994564 L 389 639 L 386.4815099563918 628.2921893974424 L 376.15103376274976 621.1421147211098"/></g><g transform="translate(-254,-182) scale(1,1)"><path fill="none" stroke="#000000" d="M 379.6475931230841 633.2092758994564 L 389 639 L 386.4815099563918 628.2921893974424 L 376.15103376274976 621.1421147211098 L 379.6475931230841 633.2092758994564" stroke-miterlimit="10"/></g></g></svg>